<svg width="89" height="18" viewBox="0 0 89 18" fill="none" xmlns="http://www.w3.org/2000/svg">
<path d="M0.841264 18V0.545454H4.53161V8.24148H4.76172L11.043 0.545454H15.4663L8.98899 8.3608L15.543 18H11.1282L6.34695 10.8239L4.53161 13.0398V18H0.841264ZM20.3967 18H16.4421L22.4677 0.545454H27.2234L33.2404 18H29.2859L24.9137 4.53409H24.7773L20.3967 18ZM20.1495 11.1392H29.4904V14.0199H20.1495V11.1392ZM49.9407 0.545454V18H46.7532L39.1594 7.0142H39.0316V18H35.3413V0.545454H38.5799L46.114 11.5227H46.2674V0.545454H49.9407Z" fill="white"/>
<path d="M52.9897 18V0.545454H59.8761C61.1999 0.545454 62.3278 0.798295 63.2596 1.30398C64.1914 1.80398 64.9016 2.5 65.3903 3.39204C65.8846 4.27841 66.1317 5.30114 66.1317 6.46023C66.1317 7.61932 65.8817 8.64205 65.3817 9.52841C64.8817 10.4148 64.1573 11.1051 63.2085 11.5994C62.2653 12.0937 61.1232 12.3409 59.7823 12.3409H55.3931V9.38352H59.1857C59.896 9.38352 60.4812 9.26136 60.9414 9.01705C61.4073 8.76705 61.7539 8.4233 61.9812 7.9858C62.2141 7.54261 62.3306 7.03409 62.3306 6.46023C62.3306 5.88068 62.2141 5.375 61.9812 4.94318C61.7539 4.50568 61.4073 4.16761 60.9414 3.92898C60.4755 3.68466 59.8846 3.5625 59.1687 3.5625H56.68V18H52.9897ZM69.5217 18H65.5671L71.5927 0.545454H76.3484L82.3654 18H78.4109L74.0387 4.53409H73.9023L69.5217 18ZM69.2745 11.1392H78.6154V14.0199H69.2745V11.1392ZM88.1566 0.545454V18H84.4663V0.545454H88.1566Z" fill="#FF8A00"/>
</svg>
