<svg width="128" height="28" viewBox="0 0 128 28" fill="none" xmlns="http://www.w3.org/2000/svg">
<path d="M24.9192 13.9091C24.9192 16.7642 24.378 19.1932 23.2956 21.196C22.2218 23.1989 20.7559 24.7287 18.8979 25.7855C17.0485 26.8338 14.9689 27.358 12.6593 27.358C10.3326 27.358 8.2445 26.8295 6.39506 25.7727C4.54563 24.7159 3.08398 23.1861 2.01012 21.1832C0.936257 19.1804 0.399325 16.7557 0.399325 13.9091C0.399325 11.054 0.936257 8.625 2.01012 6.62216C3.08398 4.61932 4.54563 3.09375 6.39506 2.04545C8.2445 0.988636 10.3326 0.460226 12.6593 0.460226C14.9689 0.460226 17.0485 0.988636 18.8979 2.04545C20.7559 3.09375 22.2218 4.61932 23.2956 6.62216C24.378 8.625 24.9192 11.054 24.9192 13.9091ZM19.307 13.9091C19.307 12.0597 19.03 10.5 18.476 9.23011C17.9306 7.96023 17.1593 6.99716 16.1621 6.34091C15.165 5.68466 13.9973 5.35653 12.6593 5.35653C11.3212 5.35653 10.1536 5.68466 9.15643 6.34091C8.15927 6.99716 7.3837 7.96023 6.82972 9.23011C6.28427 10.5 6.01154 12.0597 6.01154 13.9091C6.01154 15.7585 6.28427 17.3182 6.82972 18.5881C7.3837 19.858 8.15927 20.821 9.15643 21.4773C10.1536 22.1335 11.3212 22.4616 12.6593 22.4616C13.9973 22.4616 15.165 22.1335 16.1621 21.4773C17.1593 20.821 17.9306 19.858 18.476 18.5881C19.03 17.3182 19.307 15.7585 19.307 13.9091ZM43.2228 8.34801C43.1206 7.31676 42.6816 6.51562 41.9061 5.9446C41.1305 5.37358 40.0779 5.08807 38.7484 5.08807C37.845 5.08807 37.0822 5.21591 36.4601 5.47159C35.8379 5.71875 35.3606 6.06392 35.0282 6.5071C34.7044 6.95028 34.5424 7.45312 34.5424 8.01562C34.5254 8.48438 34.6234 8.89347 34.8365 9.2429C35.0581 9.59233 35.3606 9.89489 35.7441 10.1506C36.1277 10.3977 36.5708 10.6151 37.0737 10.8026C37.5765 10.9815 38.1135 11.1349 38.6845 11.2628L41.0368 11.8253C42.1788 12.081 43.2271 12.4219 44.1816 12.848C45.1362 13.2741 45.9629 13.7983 46.6618 14.4205C47.3606 15.0426 47.9018 15.7756 48.2853 16.6193C48.6774 17.4631 48.8777 18.4304 48.8862 19.5213C48.8777 21.1236 48.4686 22.5128 47.6589 23.6889C46.8578 24.8565 45.6987 25.7642 44.1816 26.4119C42.6731 27.0511 40.8535 27.3707 38.7228 27.3707C36.6092 27.3707 34.7683 27.0469 33.2001 26.3991C31.6404 25.7514 30.4217 24.7926 29.5439 23.5227C28.6745 22.2443 28.2186 20.6634 28.176 18.7798H33.5325C33.5922 19.6577 33.8436 20.3906 34.2868 20.9787C34.7385 21.5582 35.3393 21.9972 36.0893 22.2955C36.8478 22.5852 37.7044 22.7301 38.6589 22.7301C39.5964 22.7301 40.4103 22.5937 41.1007 22.321C41.7995 22.0483 42.3407 21.669 42.7243 21.1832C43.1078 20.6974 43.2995 20.1392 43.2995 19.5085C43.2995 18.9205 43.1248 18.4261 42.7754 18.0256C42.4345 17.625 41.9316 17.2841 41.2669 17.0028C40.6106 16.7216 39.8052 16.4659 38.8507 16.2358L35.9998 15.5199C33.7924 14.983 32.0495 14.1435 30.7711 13.0014C29.4927 11.8594 28.8578 10.321 28.8663 8.38636C28.8578 6.80114 29.2797 5.41619 30.1319 4.23153C30.9927 3.04687 32.1731 2.12216 33.6731 1.45739C35.1731 0.792613 36.8777 0.460226 38.7868 0.460226C40.7299 0.460226 42.426 0.792613 43.8748 1.45739C45.3322 2.12216 46.4657 3.04687 47.2754 4.23153C48.0851 5.41619 48.5027 6.78835 48.5282 8.34801H43.2228ZM56.5247 27H50.5929L59.6312 0.818181H66.7647L75.7903 27H69.8585L63.3002 6.80114H63.0957L56.5247 27ZM56.1539 16.7088H70.1653V21.0298H56.1539V16.7088ZM78.9416 27V0.818181H84.4771V12.3622H84.8223L94.2441 0.818181H100.879L91.1632 12.5412L100.994 27H94.372L87.2001 16.2358L84.4771 19.5597V27H78.9416ZM108.275 27H102.343L111.381 0.818181H118.515L127.54 27H121.608L115.05 6.80114H114.846L108.275 27ZM107.904 16.7088H121.915V21.0298H107.904V16.7088Z" fill="white"/>
</svg>
